<?xml version="1.0" encoding="utf-8"?>
<!-- Generator: Adobe Illustrator 22.1.0, SVG Export Plug-In . SVG Version: 6.00 Build 0)  -->
<svg version="1.1" id="Ebene_1" xmlns="http://www.w3.org/2000/svg" xmlns:xlink="http://www.w3.org/1999/xlink" x="0px" y="0px"
	 viewBox="0 0 40 40" style="enable-background:new 0 0 40 40;" xml:space="preserve">
<style type="text/css">
	.st0{fill:#A845E6;}
</style>
<title>mobo3</title>
<g>
	<path class="st0" d="M37.2,21c-0.4-4.3-5.9-6.8-9-8.4c-4.2-2.1-8.7-3.5-13.3-4.2c-1.4-0.2-3.2-0.6-4.1,0.8
		c-0.5,0.8-0.7,2.1-0.9,3.1c-0.1,1.1-0.1,2.5,0.7,3.2c1.1,0.9,3.4,0.5,4.6,0.5c4-0.1,7.6-0.1,11.4,1.5c1.6,0.6,3.4,1.1,4.9,1.9
		c0.9,0.5,1.2,1,0.9,2c-0.7,2.8-4.3,3.9-6.7,4.5c-1.4,0.3-2.7,0.6-4.1,0.7c-0.4,0-1.1,0.2-1.5,0.1c-0.6-0.2-0.3-0.2-0.7-1.1
		c-1-2.1-4-0.3-5.5,0.3c-0.9,0.4-1.5,1.1-2.3,1.5c-0.7,0.4-1.3,1.1-1,2.1c0.4,1.1,1.5,1,2.4,1.3c1.1,0.4,2.4,0.9,3.3,1.6
		c0.7,0.5,1.3,1.2,2.2,0.7c0.8-0.4,1-1.4,0.9-2.3c3.7-0.1,7.4-0.8,10.7-2.4C33.1,27.3,37.6,24.8,37.2,21z"/>
	<path d="M15.2,16.8c-0.7-0.9-0.2-2.6-0.4-3.6c-0.2-1-0.4-2.1-0.7-3.1c-0.1-0.4-0.3-1.1-0.7-1.2c-0.4-0.1-1.1,0.5-1.3,0.8
		c-0.5,0.8-0.3,2.3-0.4,3.3c-0.2,0.9-0.3,2.6-1.1,3.2c-0.6,0.5-2.2,0.4-2.5-0.4C7.6,14.9,8.2,13,8.4,12C8.6,10.8,8.6,9.3,8,8.2
		C7.4,8.6,6.3,9.1,6,9.8c-0.4,0.8-0.2,2.3-0.3,3.2c-0.1,0.9-0.2,1.8-1,2.3c-0.4,0.3-1.1,0.7-1.7,0.9c-0.5,0.2-1.4,0.2-1.8-0.3
		c-0.5-0.5-0.3-1.7-0.3-2.3C1.1,11.4,0.9,9,1.2,6.9C1.4,6,1.8,5.5,2.6,5.4C3.8,5.2,4,6,5,6.3c1.2,0.4,2.6-1.5,4.2-0.9
		c0.5,0.2,1.1,0.4,1.4,0.8c0.1,0.1,0.2,0.6,0.4,0.6c0.2,0.1,0.7-0.4,0.9-0.5C12.5,6.2,13,6,13.6,6c1.8,0,3,1.4,3.5,3s1,3.4,1,5.2
		c0,1,0,2.1-1.1,2.6C16.4,17.2,15.9,16.9,15.2,16.8z"/>
	<path d="M28.6,20.4c0.5-1.5,0.3-3.3,0.5-4.9c0.2-1.1-0.1-1.9,1-2.4c0.9-0.4,2.3-0.2,2.7,0.9c0.2,0.8-0.2,2.2-0.3,2.9
		c-0.1,0.5-0.4,1.7,0,2.1c0,0,0.8,0.1,0.8,0.1c0.6,0.1,1.1,0.2,1.7,0.4c1,0.2,2,0.5,2.8,1.1c3.4,2.6-0.7,6.1-3.3,7.2
		c-1,0.5-2.4,0.9-3.6,0.7c-0.8-0.1-2.3-0.7-2.3-1.8c0-0.4,0.4-0.8,0.4-1.2c0.1-0.6-0.1-1.3-0.2-1.8C28.9,22.6,29,21.4,28.6,20.4z
		 M35.3,22.6c-0.4-0.2-2.6-0.9-3-0.5c-0.2,0.3,0.1,1.8,0.2,2.1c0.1,0.4-0.2,0.5,0.3,0.5c0.3,0,0.8-0.4,1-0.6
		C34.5,23.8,35,23.3,35.3,22.6z"/>
	<path d="M28,15.2c-0.3,1.2-0.4,2.3-1.6,2.9c-1.2,0.6-3.1,0.2-4.3-0.4c-2.4-1.2-3-3.2-2.3-5.7c0.6-2.2,2.8-3,4.8-1.8
		c0.9,0.5,1.4,1.4,2,2.2C27.4,13.3,27.8,14,28,15.2z M24.5,15.1c-0.2-0.5-1.7-2-1.6-0.6C23,15.2,24.5,16.2,24.5,15.1z"/>
</g>
</svg>
